<mxfile host="Electron" modified="2023-09-26T01:37:36.122Z" agent="Mozilla/5.0 (Windows NT 10.0; Win64; x64) AppleWebKit/537.36 (KHTML, like Gecko) draw.io/21.7.5 Chrome/114.0.5735.289 Electron/25.8.1 Safari/537.36" etag="zWue7a5rwDfoHOCmuPUY" version="21.7.5" type="device">
  <diagram name="Page-1" id="npOsPoXYvCgNWWWmlB4v">
    <mxGraphModel dx="1007" dy="592" grid="1" gridSize="10" guides="1" tooltips="1" connect="1" arrows="1" fold="1" page="1" pageScale="1" pageWidth="850" pageHeight="1100" math="0" shadow="0">
      <root>
        <mxCell id="0" />
        <mxCell id="1" parent="0" />
        <mxCell id="auDLCsgL_SpZRB407pIn-1" value="" style="rounded=1;whiteSpace=wrap;html=1;arcSize=2;" vertex="1" parent="1">
          <mxGeometry x="275" y="100" width="300" height="450" as="geometry" />
        </mxCell>
        <mxCell id="auDLCsgL_SpZRB407pIn-5" style="edgeStyle=orthogonalEdgeStyle;rounded=0;orthogonalLoop=1;jettySize=auto;html=1;exitX=1;exitY=0.3333333333333333;exitDx=0;exitDy=0;exitPerimeter=0;entryX=0;entryY=0.5;entryDx=0;entryDy=0;" edge="1" parent="1" source="auDLCsgL_SpZRB407pIn-2" target="auDLCsgL_SpZRB407pIn-3">
          <mxGeometry relative="1" as="geometry">
            <Array as="points">
              <mxPoint x="290" y="210" />
              <mxPoint x="290" y="150" />
            </Array>
          </mxGeometry>
        </mxCell>
        <mxCell id="auDLCsgL_SpZRB407pIn-19" style="edgeStyle=orthogonalEdgeStyle;rounded=0;orthogonalLoop=1;jettySize=auto;html=1;exitX=1;exitY=0.3333333333333333;exitDx=0;exitDy=0;exitPerimeter=0;" edge="1" parent="1" source="auDLCsgL_SpZRB407pIn-2" target="auDLCsgL_SpZRB407pIn-10">
          <mxGeometry relative="1" as="geometry" />
        </mxCell>
        <mxCell id="auDLCsgL_SpZRB407pIn-2" value="Customer" style="shape=umlActor;verticalLabelPosition=bottom;verticalAlign=top;html=1;outlineConnect=0;" vertex="1" parent="1">
          <mxGeometry x="130" y="190" width="30" height="60" as="geometry" />
        </mxCell>
        <mxCell id="auDLCsgL_SpZRB407pIn-3" value="place order" style="ellipse;html=1;whiteSpace=wrap;" vertex="1" parent="1">
          <mxGeometry x="385" y="130" width="80" height="40" as="geometry" />
        </mxCell>
        <mxCell id="auDLCsgL_SpZRB407pIn-4" value="Take order" style="ellipse;html=1;whiteSpace=wrap;" vertex="1" parent="1">
          <mxGeometry x="385" y="250" width="80" height="42" as="geometry" />
        </mxCell>
        <mxCell id="auDLCsgL_SpZRB407pIn-7" style="edgeStyle=orthogonalEdgeStyle;rounded=0;orthogonalLoop=1;jettySize=auto;html=1;exitX=0;exitY=0.3333333333333333;exitDx=0;exitDy=0;exitPerimeter=0;entryX=1;entryY=0.5;entryDx=0;entryDy=0;" edge="1" parent="1" source="auDLCsgL_SpZRB407pIn-6" target="auDLCsgL_SpZRB407pIn-4">
          <mxGeometry relative="1" as="geometry" />
        </mxCell>
        <mxCell id="auDLCsgL_SpZRB407pIn-6" value="Wiater" style="shape=umlActor;verticalLabelPosition=bottom;verticalAlign=top;html=1;" vertex="1" parent="1">
          <mxGeometry x="730" y="180" width="30" height="60" as="geometry" />
        </mxCell>
        <mxCell id="auDLCsgL_SpZRB407pIn-8" value="take order to chef" style="ellipse;html=1;whiteSpace=wrap;" vertex="1" parent="1">
          <mxGeometry x="370" y="330" width="110" height="40" as="geometry" />
        </mxCell>
        <mxCell id="auDLCsgL_SpZRB407pIn-9" value="&amp;lt;&amp;lt;include&amp;gt;&amp;gt;" style="endArrow=open;startArrow=none;endFill=0;startFill=0;endSize=8;html=1;verticalAlign=bottom;dashed=1;labelBackgroundColor=none;rounded=0;exitX=0.5;exitY=1;exitDx=0;exitDy=0;entryX=0.5;entryY=0;entryDx=0;entryDy=0;" edge="1" parent="1" source="auDLCsgL_SpZRB407pIn-4" target="auDLCsgL_SpZRB407pIn-8">
          <mxGeometry x="0.4737" y="35" width="160" relative="1" as="geometry">
            <mxPoint x="340" y="310" as="sourcePoint" />
            <mxPoint x="500" y="310" as="targetPoint" />
            <mxPoint as="offset" />
          </mxGeometry>
        </mxCell>
        <mxCell id="auDLCsgL_SpZRB407pIn-10" value="pay bill" style="ellipse;html=1;whiteSpace=wrap;" vertex="1" parent="1">
          <mxGeometry x="390" y="195" width="70" height="30" as="geometry" />
        </mxCell>
        <mxCell id="auDLCsgL_SpZRB407pIn-15" style="edgeStyle=orthogonalEdgeStyle;rounded=0;orthogonalLoop=1;jettySize=auto;html=1;exitX=0;exitY=0.3333333333333333;exitDx=0;exitDy=0;exitPerimeter=0;entryX=1;entryY=0.5;entryDx=0;entryDy=0;" edge="1" parent="1" source="auDLCsgL_SpZRB407pIn-11" target="auDLCsgL_SpZRB407pIn-14">
          <mxGeometry relative="1" as="geometry" />
        </mxCell>
        <mxCell id="auDLCsgL_SpZRB407pIn-11" value="Chef" style="shape=umlActor;verticalLabelPosition=bottom;verticalAlign=top;html=1;" vertex="1" parent="1">
          <mxGeometry x="730" y="330" width="30" height="60" as="geometry" />
        </mxCell>
        <mxCell id="auDLCsgL_SpZRB407pIn-14" value="cooks food" style="ellipse;html=1;whiteSpace=wrap;" vertex="1" parent="1">
          <mxGeometry x="385" y="390" width="80" height="30" as="geometry" />
        </mxCell>
        <mxCell id="auDLCsgL_SpZRB407pIn-18" style="edgeStyle=orthogonalEdgeStyle;rounded=0;orthogonalLoop=1;jettySize=auto;html=1;exitX=0;exitY=0.3333333333333333;exitDx=0;exitDy=0;exitPerimeter=0;entryX=1;entryY=0.5;entryDx=0;entryDy=0;" edge="1" parent="1" source="auDLCsgL_SpZRB407pIn-16" target="auDLCsgL_SpZRB407pIn-17">
          <mxGeometry relative="1" as="geometry" />
        </mxCell>
        <mxCell id="auDLCsgL_SpZRB407pIn-16" value="Cashier" style="shape=umlActor;verticalLabelPosition=bottom;verticalAlign=top;html=1;" vertex="1" parent="1">
          <mxGeometry x="730" y="460" width="30" height="60" as="geometry" />
        </mxCell>
        <mxCell id="auDLCsgL_SpZRB407pIn-17" value="settles bill" style="ellipse;html=1;whiteSpace=wrap;" vertex="1" parent="1">
          <mxGeometry x="380" y="464" width="90" height="32" as="geometry" />
        </mxCell>
        <mxCell id="auDLCsgL_SpZRB407pIn-21" value="Restraunt" style="text;html=1;strokeColor=none;fillColor=none;align=center;verticalAlign=middle;whiteSpace=wrap;rounded=0;" vertex="1" parent="1">
          <mxGeometry x="395" y="70" width="60" height="30" as="geometry" />
        </mxCell>
        <mxCell id="auDLCsgL_SpZRB407pIn-22" value="Rahul Siloniya&lt;br&gt;IT A1&lt;br&gt;12113018" style="text;html=1;strokeColor=none;fillColor=none;align=center;verticalAlign=middle;whiteSpace=wrap;rounded=0;" vertex="1" parent="1">
          <mxGeometry x="610" y="920" width="110" height="50" as="geometry" />
        </mxCell>
      </root>
    </mxGraphModel>
  </diagram>
</mxfile>
